<svg width="12" height="12" viewBox="0 0 12 12" fill="none" xmlns="http://www.w3.org/2000/svg">
<g clip-path="url(#clip0_1_32)">
<path d="M11.4 4.675L10.25 3.725V1.875C10.2492 1.82706 10.2347 1.78036 10.2081 1.74047C10.1815 1.70058 10.144 1.66917 10.1 1.65L7.62503 0.525H7.52503L7.37503 0.575L6.00003 1.475L4.62503 0.55L4.47503 0.5H4.37503L1.90003 1.65C1.85608 1.66917 1.81858 1.70058 1.79198 1.74047C1.76539 1.78036 1.75082 1.82706 1.75003 1.875V3.725L0.600028 4.675C0.565336 4.69459 0.537283 4.72409 0.519467 4.75972C0.50165 4.79535 0.494881 4.83549 0.500028 4.875V7.125C0.494881 7.16451 0.50165 7.20465 0.519467 7.24028C0.537283 7.27591 0.565336 7.30541 0.600028 7.325L1.75003 8.275V10.125C1.75082 10.1729 1.76539 10.2196 1.79198 10.2595C1.81858 10.2994 1.85608 10.3308 1.90003 10.35L4.37503 11.475H4.47503L4.62503 11.425L6.00003 10.525L7.37503 11.45L7.52503 11.5H7.62503L10.1 10.375C10.144 10.3558 10.1815 10.3244 10.2081 10.2845C10.2347 10.2446 10.2492 10.1979 10.25 10.15V8.275L11.4 7.325C11.4307 7.30729 11.4561 7.28176 11.4737 7.25102C11.4913 7.22027 11.5003 7.18541 11.5 7.15V4.85C11.5003 4.81459 11.4913 4.77973 11.4737 4.74898C11.4561 4.71824 11.4307 4.69271 11.4 4.675ZM10.125 6.375H10.5V6.775L9.62503 7.475L9.52503 7.55L9.42503 7.5C9.38145 7.47495 9.33299 7.45958 9.28294 7.45494C9.23289 7.4503 9.18243 7.45649 9.13499 7.47309C9.08754 7.4897 9.04423 7.51633 9.008 7.55117C8.97177 7.58601 8.94347 7.62824 8.92503 7.675C8.88017 7.7615 8.87075 7.86206 8.89875 7.95538C8.92674 8.04871 8.98997 8.12748 9.07503 8.175L9.25003 8.25V9.6L7.60003 10.375L6.55003 9.675L6.37503 9.55V6.375H6.75003C6.84948 6.375 6.94487 6.33549 7.01519 6.26516C7.08552 6.19484 7.12503 6.09946 7.12503 6C7.12503 5.90054 7.08552 5.80516 7.01519 5.73484C6.94487 5.66451 6.84948 5.625 6.75003 5.625H6.37503V2.425L6.55003 2.3L7.60003 1.6L9.25003 2.375V3.725L9.07503 3.8C8.98997 3.84752 8.92674 3.92629 8.89875 4.01962C8.87075 4.11294 8.88017 4.2135 8.92503 4.3C8.95022 4.36589 8.99473 4.42262 9.05272 4.46277C9.11072 4.50292 9.17949 4.52461 9.25003 4.525L9.42503 4.475L9.52503 4.425L9.62503 4.5L10.5 5.225V5.625H10.125C10.0256 5.625 9.93019 5.66451 9.85986 5.73484C9.78954 5.80516 9.75003 5.90054 9.75003 6C9.75003 6.09946 9.78954 6.19484 9.85986 6.26516C9.93019 6.33549 10.0256 6.375 10.125 6.375ZM5.25003 6.375H5.62503V9.575L5.45003 9.7L4.40003 10.4L2.75003 9.625V8.275L2.92503 8.2C3.01009 8.15248 3.07331 8.07371 3.10131 7.98038C3.12931 7.88706 3.11988 7.7865 3.07503 7.7C3.05658 7.65324 3.02828 7.61101 2.99205 7.57617C2.95582 7.54133 2.91251 7.5147 2.86507 7.49809C2.81763 7.48149 2.76717 7.4753 2.71712 7.47994C2.66707 7.48458 2.61861 7.49995 2.57503 7.525L2.47503 7.575L2.37503 7.5L1.50003 6.775V6.375H1.87503C1.97448 6.375 2.06987 6.33549 2.14019 6.26516C2.21052 6.19484 2.25003 6.09946 2.25003 6C2.25003 5.90054 2.21052 5.80516 2.14019 5.73484C2.06987 5.66451 1.97448 5.625 1.87503 5.625H1.50003V5.225L2.37503 4.525L2.47503 4.45L2.57503 4.5L2.75003 4.55C2.82056 4.54961 2.88934 4.52792 2.94733 4.48777C3.00533 4.44762 3.04984 4.39089 3.07503 4.325C3.11988 4.2385 3.12931 4.13794 3.10131 4.04462C3.07331 3.95129 3.01009 3.87252 2.92503 3.825L2.75003 3.75V2.375L4.40003 1.6L5.45003 2.3L5.62503 2.425V5.625H5.25003C5.15057 5.625 5.05519 5.66451 4.98486 5.73484C4.91454 5.80516 4.87503 5.90054 4.87503 6C4.87503 6.09946 4.91454 6.19484 4.98486 6.26516C5.05519 6.33549 5.15057 6.375 5.25003 6.375Z" fill="white"/>
<path d="M3.475 2.47503C3.41418 2.5538 3.3812 2.65051 3.3812 2.75003C3.3812 2.84955 3.41418 2.94626 3.475 3.02503L4.125 3.65003V4.35003L3.125 5.35003V6.65003L4.125 7.65003V8.35003L3.475 8.97503C3.41418 9.0538 3.3812 9.15051 3.3812 9.25003C3.3812 9.34955 3.41418 9.44626 3.475 9.52503C3.5118 9.55928 3.5551 9.58578 3.60234 9.60296C3.64959 9.62014 3.6998 9.62764 3.75 9.62503C3.8002 9.62764 3.85041 9.62014 3.89766 9.60296C3.9449 9.58578 3.9882 9.55928 4.025 9.52503L4.875 8.65003V7.35003L3.875 6.35003V5.65003L4.875 4.65003V3.35003L4.025 2.47503C3.94623 2.41421 3.84952 2.38123 3.75 2.38123C3.65048 2.38123 3.55377 2.41421 3.475 2.47503Z" fill="white"/>
<path d="M7.875 3.65003L8.525 3.02503C8.58582 2.94626 8.6188 2.84955 8.6188 2.75003C8.6188 2.65051 8.58582 2.5538 8.525 2.47503C8.44623 2.41421 8.34952 2.38123 8.25 2.38123C8.15048 2.38123 8.05377 2.41421 7.975 2.47503L7.125 3.35003V4.65003L8.125 5.65003V6.35003L7.125 7.35003V8.65003L7.975 9.52503C8.0518 9.59021 8.14926 9.62599 8.25 9.62599C8.35074 9.62599 8.4482 9.59021 8.525 9.52503C8.58582 9.44626 8.6188 9.34955 8.6188 9.25003C8.6188 9.15051 8.58582 9.0538 8.525 8.97503L7.875 8.35003V7.65003L8.875 6.65003V5.35003L7.875 4.35003V3.65003Z" fill="white"/>
</g>
<defs>
<clipPath id="clip0_1_32">
<rect width="12" height="12" fill="white"/>
</clipPath>
</defs>
</svg>
